<!-- icon666.com - MILLIONS vector ICONS FREE --><svg version="1.1" id="Layer_1" xmlns="http://www.w3.org/2000/svg" xmlns:xlink="http://www.w3.org/1999/xlink" x="0px" y="0px" viewBox="0 0 512 512" style="enable-background:new 0 0 512 512;" xml:space="preserve"><path style="fill:#3E3D42;" d="M463.691,275.355H238.844l-0.801-100.521c-0.06-7.677,3.005-15.206,8.411-20.657 c5.409-5.452,12.913-8.578,20.592-8.578h28.57c6.706,0,13.25,2.346,18.429,6.607L463.691,275.355z M273.157,240.766h94.071 l-73.616-60.58h-20.939L273.157,240.766z"></path><path style="fill:#CD2A00;" d="M511.016,246.983c-1.834-4.126-5.925-6.785-10.44-6.785H174.529H64.906H40.667 c-7.726,0-14.704,4.624-17.713,11.741L1.519,302.617c-2.512,5.939-1.88,12.742,1.683,18.117c3.562,5.375,9.582,8.607,16.03,8.607 h68.679l11.305,43.807c2.495,9.669,11.217,16.426,21.203,16.426h261.22c6.194,0,12.099-2.624,16.25-7.22l111.165-123.076 C512.08,255.927,512.849,251.108,511.016,246.983z"></path><path style="fill:#787680;" d="M93.749,127.722c-6.377,0-12.236-3.51-15.247-9.131c-6.913-12.911-20.288-20.931-34.906-20.931 c-9.551,0-17.294-7.743-17.294-17.294s7.743-17.294,17.294-17.294c18.9,0,36.688,7.147,50.153,19.518 c13.465-12.371,31.253-19.518,50.153-19.518c9.551,0,17.294,7.743,17.294,17.294s-7.743,17.294-17.294,17.294 c-14.619,0-27.993,8.021-34.906,20.931C105.985,124.212,100.126,127.722,93.749,127.722z"></path><path style="fill:#3E3D42;" d="M242.165,68.262L242.165,68.262c-6.377,0-12.236-3.51-15.247-9.131 C220.006,46.22,206.63,38.2,192.012,38.2c-9.551,0-17.294-7.743-17.294-17.294s7.743-17.294,17.294-17.294 c18.9,0,36.688,7.148,50.153,19.519c13.466-12.371,31.253-19.519,50.153-19.519c9.551,0,17.294,7.743,17.294,17.294 S301.869,38.2,292.318,38.2c-14.618,0-27.993,8.021-34.907,20.932C254.401,64.752,248.541,68.262,242.165,68.262z"></path><path style="fill:#891C00;" d="M87.91,329.341l11.305,43.807c2.495,9.669,11.217,16.426,21.203,16.426h261.22 c6.194,0,12.099-2.624,16.25-7.22l47.883-53.013H87.91z"></path><path style="fill:#1A6FB0;" d="M258.821,508.387c-18.737,0-36.353-7.297-49.603-20.547c-15.027-15.026-39.477-15.026-54.504,0 c-6.173,6.172-16.18,6.172-22.35,0c-6.173-6.173-6.173-16.179,0-22.352c27.351-27.349,71.854-27.349,99.205,0 c15.029,15.028,39.479,15.026,54.504,0c13.249-13.249,30.866-20.546,49.603-20.546c18.738,0,36.354,7.297,49.603,20.546 c6.173,6.173,6.173,16.179,0,22.352c-6.172,6.17-16.179,6.173-22.35,0c-7.279-7.279-16.957-11.287-27.252-11.287 c-10.294,0-19.972,4.009-27.252,11.289C295.174,501.091,277.557,508.387,258.821,508.387z"></path><path style="fill:#3D9AE2;" d="M412.53,421.296c-18.737,0-36.353-7.297-49.603-20.547c-15.027-15.026-39.477-15.026-54.504,0 c-13.249,13.249-30.866,20.546-49.603,20.546c-18.737,0-36.353-7.297-49.603-20.547c-7.28-7.279-16.958-11.287-27.252-11.287 s-19.973,4.009-27.252,11.287c-13.249,13.249-30.866,20.547-49.603,20.547c-18.738,0-36.354-7.297-49.603-20.547 c-6.173-6.173-6.172-16.179,0-22.352c6.173-6.172,16.18-6.172,22.35,0c7.279,7.28,16.957,11.289,27.252,11.289 c10.294,0,19.972-4.009,27.252-11.289c13.248-13.249,30.865-20.546,49.603-20.546c18.737,0,36.353,7.297,49.603,20.546 c7.28,7.28,16.958,11.289,27.252,11.289c10.294,0,19.972-4.009,27.252-11.289c27.351-27.35,71.854-27.35,99.205,0 c7.28,7.28,16.958,11.289,27.252,11.289c10.294,0,19.973-4.009,27.252-11.289c6.172-6.172,16.179-6.173,22.35,0 c6.172,6.173,6.173,16.179,0,22.352C448.883,413.999,431.268,421.296,412.53,421.296z"></path></svg>